# xmcd
#
# Track frame offsets:
#	150
#	17359
#	37964
#	55746
#	73310
#	92080
#	114752
#	133714
#	151776
#	173373
#	195782
#	219114
#	261992
#
# Disc length: 3499 seconds
#
# Revision: 0
# Processed by: cddbd v1.4PL0 Copyright (c) Steve Scherf et al.
# Submitted via: EasyCDDAExtractor 4.6.0.1
#
DISCID=970da90d
DTITLE=Fáfá de Belém - Pássaro sonhador
DYEAR=1996
DGENRE=contry
TTITLE0=Vermelho
TTITLE1=Abandonada
TTITLE2=Entre a luz e a escuridão
TTITLE3=À queima roupa
TTITLE4=Port-Pourri Este pranto é meu, carinho nativo, este rio é minha rua
TTITLE5=Pra nunca mais
TTITLE6=Aparências
TTITLE7=É tão bom te amar
TTITLE8=Mania de te amar
TTITLE9=Já é tarde
TTITLE10=Pássaro sonhador
TTITLE11=Vermelho
TTITLE12=Untitled
EXTD=
EXTT0=
EXTT1=
EXTT2=
EXTT3=
EXTT4=
EXTT5=
EXTT6=
EXTT7=
EXTT8=
EXTT9=
EXTT10=
EXTT11=
EXTT12=
PLAYORDER=
